<?xml version="1.0" encoding="UTF-8"?>
<!DOCTYPE svg PUBLIC "-//W3C//DTD SVG 1.1//EN" "http://www.w3.org/Graphics/SVG/1.1/DTD/svg11.dtd">
<!-- Creator: CorelDRAW 2017 -->
<svg xmlns="http://www.w3.org/2000/svg" xml:space="preserve" width="175.562mm" height="31.0346mm" version="1.1" style="shape-rendering:geometricPrecision; text-rendering:geometricPrecision; image-rendering:optimizeQuality; fill-rule:evenodd; clip-rule:evenodd"
viewBox="0 0 16333.39 2887.3"
 xmlns:xlink="http://www.w3.org/1999/xlink">
 <defs>
  <style type="text/css">
   <![CDATA[
    .fil1 {fill:#ffffff;fill-rule:nonzero}
    .fil0 {fill:#ffffff;fill-rule:nonzero}
   ]]>
  </style>
 </defs>
 <g id="Camada_x0020_1">
  <metadata id="CorelCorpID_0Corel-Layer"/>
  <g id="_1898347903536">
   <path class="fil0" d="M378.87 474.13l0 181.69c78.29,-129.99 203.1,-194.97 374.44,-194.97 91.58,0 173.19,20.67 244.83,62.04 71.64,41.35 127.39,100.44 167.28,177.25 45.79,-72.38 105.24,-130.36 178.36,-173.93 73.12,-43.58 154.73,-65.36 244.82,-65.36 150.66,0 270.3,46.53 358.93,139.58 88.62,93.05 132.94,222.3 132.94,387.73l0 722.28 -376.65 0 0 -671.33c0,-79.76 -21.05,-141.43 -63.14,-185 -42.1,-43.58 -100.08,-65.37 -173.93,-65.37 -73.85,0 -131.83,21.79 -173.93,65.37 -42.09,43.57 -63.14,105.24 -63.14,185l0 671.33 -376.65 0 0 -671.33c0,-79.76 -21.04,-141.43 -63.14,-185 -42.1,-43.58 -100.07,-65.37 -173.93,-65.37 -73.85,0 -131.83,21.79 -173.92,65.37 -42.1,43.57 -63.15,105.24 -63.15,185l0 671.33 -378.87 0 0 -1236.31 378.87 0z"/>
   <path id="1" class="fil0" d="M3055.31 1318.28c54.66,-53.18 81.98,-128.51 81.98,-225.99 0,-97.49 -27.32,-172.45 -81.98,-224.88 -54.65,-52.43 -117.42,-78.66 -188.32,-78.66 -70.9,0 -133.67,26.59 -188.33,79.77 -54.65,53.17 -81.97,128.5 -81.97,225.99 0,97.48 27.32,172.45 81.97,224.88 54.66,52.43 117.43,78.65 188.33,78.65 70.9,0 133.67,-26.59 188.32,-79.76zm-680.19 230.42c-109.31,-118.16 -163.96,-269.56 -163.96,-454.2 0,-184.64 54.65,-336.4 163.96,-455.31 109.31,-118.9 242.61,-178.35 399.92,-178.35 157.3,0 278.05,58.34 362.25,175.03l0 -161.74 378.87 0 0 1236.31 -378.87 0 0 -179.46c-91.58,129.98 -214.18,194.97 -367.79,194.97 -153.61,0 -285.07,-59.09 -394.37,-177.25z"/>
   <path id="2" class="fil0" d="M4127.66 474.13l0 230.43c88.62,-162.48 206.8,-243.71 354.5,-243.71l0 385.51 -93.05 0c-87.15,0 -152.51,20.68 -196.08,62.04 -43.58,41.36 -65.37,113.74 -65.37,217.13l0 584.92 -378.87 0 0 -1236.31 378.87 0z"/>
   <path id="3" class="fil0" d="M4669.38 1553.13c-114.48,-115.2 -171.71,-268.82 -171.71,-460.84 0,-192.02 57.23,-345.27 171.71,-459.74 114.47,-114.47 262.54,-171.7 444.22,-171.7 150.66,0 278.43,37.29 383.3,111.88 104.87,74.6 174.29,181.31 208.27,320.15l-409.89 0c-35.45,-73.85 -93.43,-110.78 -173.92,-110.78 -80.5,0 -140.32,28.43 -179.46,85.3 -39.15,56.86 -58.71,131.82 -58.71,224.88 0,93.05 19.57,168.01 58.71,224.88 39.14,56.86 96.37,85.29 171.7,85.29 47.27,0 84.2,-8.12 110.79,-24.37 26.58,-16.25 50.22,-45.06 70.89,-86.41l409.89 0c-33.98,132.94 -104.13,238.55 -210.48,316.83 -106.35,78.29 -233.38,117.43 -381.09,117.43 -181.68,0 -329.75,-57.61 -444.22,-172.82z"/>
   <path id="4" class="fil0" d="M6560.39 1322.71c50.22,-53.17 75.33,-129.98 75.33,-230.42 0,-100.44 -25.85,-176.88 -77.54,-229.32 -51.7,-52.43 -113,-78.65 -183.9,-78.65 -70.89,0 -131.83,26.22 -182.79,78.65 -50.96,52.44 -76.44,128.88 -76.44,229.32 0,100.44 26.22,177.25 78.65,230.42 52.43,53.18 114.11,79.76 185.01,79.76 70.89,0 131.46,-26.58 181.68,-79.76zm-643.63 228.2c-124.82,-116.68 -187.22,-270.3 -187.22,-460.84 0,-190.54 62.04,-343.06 186.12,-457.53 124.07,-114.47 277.68,-171.7 460.84,-171.7 183.16,0 336.4,57.23 459.74,171.7 123.34,114.47 185,266.98 185,457.53 0,190.54 -61.29,344.15 -183.89,460.84 -122.59,116.69 -275.48,175.04 -458.62,175.04 -183.16,0 -337.15,-58.34 -461.95,-175.04z"/>
   <path id="5" class="fil0" d="M7081.05 846.36c0,-109.3 46.54,-200.88 139.59,-274.73 93.05,-73.85 218.98,-110.78 377.76,-110.78 158.78,0 286.92,36.18 384.41,108.56 97.48,72.37 149.18,171.34 155.09,296.89l-387.73 0c-4.43,-42.84 -19.2,-72.01 -44.31,-87.52 -25.11,-15.51 -62.77,-23.27 -112.99,-23.27 -98.97,0 -148.45,30.28 -148.45,90.84 0,54.66 60.56,92.32 181.68,113 122.59,20.68 234.11,52.43 334.55,95.27 51.7,20.68 94.9,55.02 129.62,103.03 34.71,48.01 52.06,106.72 52.06,176.14 0,115.21 -49.48,209.37 -148.45,282.49 -98.96,73.12 -223.77,109.67 -374.44,109.67 -150.66,0 -276.21,-34.34 -376.65,-103.03 -100.44,-68.68 -155.09,-170.24 -163.96,-304.64l387.73 0c10.35,75.33 63.51,112.99 159.53,112.99 44.31,0 80.87,-10.34 109.67,-31.02 28.8,-20.67 43.21,-47.26 43.21,-79.76 0,-32.5 -24,-58.34 -72.01,-77.54 -48.01,-19.2 -105.98,-35.46 -173.92,-48.74 -67.95,-13.29 -136.26,-29.91 -204.95,-49.86 -68.69,-19.94 -127.03,-54.65 -175.04,-104.13 -48.01,-49.48 -72.01,-114.1 -72.01,-193.87z"/>
   <path id="6" class="fil1" d="M8807.01 489.64l0 206.05 -225.99 0 0 1014.75 -254.79 0 0 -1014.75 -144.01 0 0 -206.05 144.01 0 0 -86.4c0,-140.32 37.3,-242.62 111.89,-306.87 74.59,-64.25 191.64,-96.37 351.17,-96.37l0 210.48c-76.81,0 -130.72,14.4 -161.74,43.21 -31.02,28.8 -46.53,78.65 -46.53,149.55l0 86.4 225.99 0z"/>
   <path id="7" class="fil1" d="M9724.26 1406.91c73.85,-73.86 110.78,-176.51 110.78,-307.97 0,-131.46 -35.82,-233.74 -107.46,-306.86 -71.64,-73.12 -158.41,-109.68 -260.33,-109.68 -101.92,0 -187.59,36.56 -257.01,109.68 -69.42,73.12 -104.13,175.77 -104.13,307.96 0,132.2 33.97,234.86 101.92,307.97 67.94,73.12 152.5,109.67 253.69,109.67 101.18,0 188.69,-36.93 262.54,-110.78zm-262.54 323.47c-177.99,0 -324.59,-57.97 -439.8,-173.92 -115.21,-115.95 -172.81,-268.09 -172.81,-456.42 0,-188.32 59.45,-340.46 178.36,-456.41 118.9,-115.95 266.97,-173.93 444.22,-173.93 177.25,0 325.32,57.98 444.23,173.93 118.9,115.95 178.36,267.72 178.36,455.3 0,187.59 -60.93,339.73 -182.79,456.42 -121.87,116.68 -271.78,175.03 -449.77,175.03z"/>
   <path id="8" class="fil1" d="M10497.5 489.64l0 192.76c81.24,-141.79 211.22,-212.7 389.95,-212.7 137.37,0 250.73,45.79 340.1,137.37 89.36,91.58 134.04,219.35 134.04,383.3l0 720.07 -250.37 0 0 -682.41c0,-109.3 -27.32,-193.12 -81.98,-251.46 -54.65,-58.35 -129.23,-87.52 -223.77,-87.52 -94.53,0 -169.5,29.17 -224.88,87.52 -55.39,58.34 -83.09,142.17 -83.09,251.46l0 682.41 -252.58 0 0 -1220.8 252.58 0z"/>
   <path id="9" class="fil1" d="M11527.75 839.71c0,-103.4 43.58,-190.92 130.72,-262.55 87.15,-71.64 201.62,-107.46 343.42,-107.46 141.8,0 254.42,35.08 337.88,105.24 83.45,70.17 128.14,165.81 134.04,286.92l-259.23 0c-4.43,-60.56 -25.47,-107.83 -63.14,-141.79 -37.66,-33.98 -90.47,-50.96 -158.42,-50.96 -67.94,0 -121.11,15.15 -159.52,45.42 -38.4,30.28 -57.61,70.17 -57.61,119.64 0,49.49 24.38,88.26 73.12,116.32 48.74,28.07 108.19,48.74 178.36,62.04 70.16,13.29 140.32,29.55 210.48,48.75 70.16,19.2 129.61,54.28 178.36,105.24 48.74,50.96 73.12,119.27 73.12,204.94 0,106.35 -44.68,192.76 -134.04,259.23 -89.37,66.46 -204.21,99.7 -344.53,99.7 -140.32,0 -254.06,-33.97 -341.21,-101.91 -87.15,-67.95 -135.15,-164.7 -144.02,-290.25l261.45 0c4.43,60.57 26.58,107.83 66.46,141.8 39.88,33.97 94.16,50.96 162.85,50.96 68.69,0 123.34,-15.14 163.96,-45.42 40.62,-30.28 60.93,-70.53 60.93,-120.75 0,-50.22 -24.38,-89.36 -73.12,-117.43 -48.74,-28.06 -108.19,-49.11 -178.36,-63.14 -70.16,-14.03 -140.32,-30.28 -210.48,-48.74 -70.16,-18.47 -129.61,-52.07 -178.36,-100.81 -48.74,-48.74 -73.12,-113.74 -73.12,-194.97z"/>
   <path id="10" class="fil1" d="M13180.59 1730.38c-177.24,0 -321.26,-57.61 -432.03,-172.81 -110.79,-115.21 -166.18,-268.09 -166.18,-458.63 0,-190.54 56.14,-343.05 168.39,-457.52 112.26,-114.48 257.38,-171.71 435.37,-171.71 177.98,0 322.37,55.02 433.15,165.06 110.78,110.04 166.17,253.69 166.17,430.94 0,42.83 -2.96,82.72 -8.87,119.64l-934.98 0c5.91,101.92 40.25,182.79 103.03,242.61 62.77,59.82 141.42,89.73 235.95,89.73 137.38,0 234.12,-56.86 290.25,-170.6l272.52 0c-36.93,112.26 -104.13,204.2 -201.62,275.84 -97.49,71.64 -217.87,107.46 -361.15,107.46zm341.21 -717.86c-1.48,-100.44 -34.71,-180.57 -99.7,-240.39 -64.99,-59.82 -144.02,-89.73 -237.07,-89.73 -93.05,0 -170.97,29.91 -233.75,89.73 -62.77,59.82 -98.59,139.95 -107.46,240.39l677.97 0z"/>
   <path id="11" class="fil1" d="M14447.91 1730.38c-177.24,0 -321.26,-57.61 -432.03,-172.81 -110.79,-115.21 -166.18,-267.72 -166.18,-457.53 0,-189.8 55.77,-342.31 167.29,-457.52 111.51,-115.21 255.16,-172.82 430.93,-172.82 147.71,0 269.94,35.08 366.69,105.24 96.75,70.17 162.1,170.24 196.08,300.21l-272.52 0c-45.79,-128.5 -142.54,-192.76 -290.25,-192.76 -103.39,0 -185.73,36.56 -247.04,109.68 -61.3,73.12 -91.95,175.4 -91.95,306.86 0,131.46 30.65,234.11 91.95,307.97 61.3,73.85 143.65,110.78 247.04,110.78 146.23,0 242.98,-64.25 290.25,-192.76l272.52 0c-35.45,124.08 -101.92,222.67 -199.4,295.79 -97.49,73.12 -218.61,109.67 -363.37,109.67z"/>
   <path id="12" class="fil1" d="M15968.93 1399.15c73.12,-74.59 109.67,-174.66 109.67,-300.21 0,-125.55 -36.55,-225.26 -109.67,-299.11 -73.12,-73.85 -159.89,-110.78 -260.33,-110.78 -100.45,0 -187.22,36.19 -260.34,108.56 -73.12,72.38 -109.67,171.34 -109.67,296.89 0,125.55 36.55,226.36 109.67,302.43 73.12,76.07 159.89,114.11 260.34,114.11 100.44,0 187.21,-37.3 260.33,-111.89zm-313.51 331.23c-162.48,0 -299.11,-59.45 -409.88,-178.36 -110.79,-118.9 -166.18,-271.04 -166.18,-456.41 0,-185.37 55.02,-336.03 165.07,-451.98 110.04,-115.95 247.04,-173.93 410.99,-173.93 96.01,0 180.57,21.79 253.69,65.36 73.12,43.58 129.62,100.81 169.49,171.71l0 -217.13 254.79 0 0 1220.8 -254.79 0 0 -228.2c-41.35,75.33 -98.23,135.51 -170.6,180.57 -72.38,45.05 -156.57,67.57 -252.58,67.57z"/>
   <path class="fil0" d="M11888.65 2450.33c24.33,-23.68 36.5,-57.22 36.5,-100.62 0,-43.4 -12.17,-76.77 -36.5,-100.11 -24.33,-23.34 -52.28,-35.02 -83.84,-35.02 -31.57,0 -59.51,11.83 -83.84,35.51 -24.33,23.67 -36.5,57.21 -36.5,100.61 0,43.4 12.17,76.78 36.5,100.12 24.33,23.34 52.28,35.02 83.84,35.02 31.57,0 59.51,-11.84 83.84,-35.51zm-302.82 102.58c-48.67,-52.6 -73,-120.01 -73,-202.21 0,-82.2 24.33,-149.77 73,-202.7 48.66,-52.94 108,-79.41 178.04,-79.41 70.04,0 123.79,25.98 161.28,77.93l0 -72 168.67 0 0 550.4 -168.67 0 0 -79.9c-40.77,57.87 -95.35,86.8 -163.74,86.8 -68.39,0 -126.92,-26.3 -175.58,-78.91z"/>
   <path id="1" class="fil0" d="M12410.46 2074.52l0 102.58c39.46,-72.33 92.06,-108.51 157.82,-108.51l0 171.64 -41.43 0c-38.8,0 -67.9,9.2 -87.29,27.61 -19.41,18.41 -29.1,50.64 -29.1,96.67l0 260.4 -168.67 0 0 -550.4 168.67 0z"/>
   <path id="2" class="fil0" d="M12995.39 2450.33c24.33,-23.68 36.5,-57.22 36.5,-100.62 0,-43.4 -12.17,-76.77 -36.5,-100.11 -24.33,-23.34 -52.28,-35.02 -83.84,-35.02 -31.57,0 -59.51,11.83 -83.84,35.51 -24.33,23.67 -36.5,57.21 -36.5,100.61 0,43.4 12.17,76.78 36.5,100.12 24.33,23.34 52.28,35.02 83.84,35.02 31.57,0 59.51,-11.84 83.84,-35.51zm-302.82 102.58c-48.67,-52.6 -73,-120.01 -73,-202.21 0,-82.2 24.33,-149.77 73,-202.7 48.66,-52.94 108,-79.41 178.04,-79.41 70.04,0 123.79,25.98 161.28,77.93l0 -72 168.67 0 0 812.78 -168.67 0 0 -342.27c-40.77,57.87 -95.35,86.8 -163.74,86.8 -68.39,0 -126.92,-26.3 -175.58,-78.91z"/>
   <path id="3" class="fil0" d="M13722.36 2074.52l168.67 0 0 550.4 -168.67 0 0 -80.88c-34.85,57.87 -90.42,86.8 -166.7,86.8 -63.13,0 -114.26,-21.04 -153.39,-63.12 -39.13,-42.09 -58.69,-99.3 -58.69,-171.64l0 -321.56 167.69 0 0 298.87c0,35.51 9.37,62.97 28.11,82.36 18.75,19.4 44.55,29.1 77.43,29.1 32.88,0 58.7,-9.7 77.43,-29.1 18.75,-19.4 28.12,-46.85 28.12,-82.36l0 -298.87z"/>
   <path id="4" class="fil0" d="M14192.87 2012.37c-19.07,19.07 -42.41,28.61 -70.04,28.61 -27.62,0 -50.96,-9.54 -70.04,-28.61 -19.07,-19.07 -28.61,-42.58 -28.61,-70.53 0,-27.95 9.54,-51.46 28.61,-70.52 19.07,-19.07 42.41,-28.61 70.04,-28.61 27.62,0 50.96,9.54 70.04,28.61 19.06,19.06 28.6,42.57 28.6,70.52 0,27.95 -9.54,51.46 -28.6,70.53zm-153.88 612.55l0 -550.4 168.67 0 0 550.4 -168.67 0z"/>
   <path id="5" class="fil0" d="M14589.4 2481.9l60.17 0 0 143.02 -85.82 0c-61.81,0 -109.65,-13.65 -143.52,-40.94 -33.86,-27.29 -50.8,-74.14 -50.8,-140.56l0 -228.85 -51.29 0 0 -140.06 51.29 0 0 -134.16 168.67 0 0 134.16 110.48 0 0 140.06 -110.48 0 0 228.85c0,25.64 17.1,38.47 51.29,38.47z"/>
   <path id="6" class="fil0" d="M14998.75 2631.82c-80.22,0 -145.98,-25.81 -197.27,-77.43 -51.3,-51.62 -76.94,-120.17 -76.94,-205.66 0,-85.48 25.48,-153.54 76.45,-204.18 50.96,-50.63 116.89,-75.95 197.76,-75.95 80.88,0 147.96,24.99 201.22,74.97 53.27,49.98 79.9,119.35 79.9,208.13 0,19.07 -1.31,36.83 -3.94,53.27l-378.77 0c3.28,24.33 14.14,44.22 32.55,59.67 18.41,15.45 38.3,23.18 59.67,23.18 21.37,0 37.33,-2.14 47.84,-6.41 10.52,-4.28 18.25,-8.55 23.18,-12.83 4.93,-4.27 11.34,-11.34 19.23,-21.2l182.49 0c-15.78,55.23 -47.35,99.79 -94.69,133.65 -47.35,33.86 -103.58,50.8 -168.68,50.8zm105.55 -332.41c-2.63,-25.65 -13.81,-46.53 -33.54,-62.63 -19.72,-16.11 -43.07,-24.17 -70.03,-24.17 -26.96,0 -49.65,8.06 -68.06,24.17 -18.41,16.1 -29.92,36.98 -34.53,62.63l206.16 0z"/>
   <path id="7" class="fil0" d="M15622.15 2481.9l60.17 0 0 143.02 -85.82 0c-61.81,0 -109.65,-13.65 -143.52,-40.94 -33.86,-27.29 -50.8,-74.14 -50.8,-140.56l0 -228.85 -51.29 0 0 -140.06 51.29 0 0 -134.16 168.67 0 0 134.16 110.48 0 0 140.06 -110.48 0 0 228.85c0,25.64 17.1,38.47 51.29,38.47z"/>
   <path id="8" class="fil0" d="M16128.17 2452.3c22.36,-23.68 33.54,-57.87 33.54,-102.59 0,-44.71 -11.51,-78.74 -34.53,-102.09 -23.02,-23.34 -50.3,-35.02 -81.87,-35.02 -31.57,0 -58.7,11.68 -81.38,35.02 -22.69,23.34 -34.03,57.37 -34.03,102.09 0,44.72 11.68,78.91 35.02,102.59 23.34,23.67 50.8,35.51 82.36,35.51 31.57,0 58.53,-11.84 80.88,-35.51zm-286.55 101.59c-55.57,-51.95 -83.35,-120.34 -83.35,-205.17 0,-84.83 27.62,-152.73 82.86,-203.69 55.23,-50.96 123.62,-76.45 205.17,-76.45 81.54,0 149.77,25.48 204.68,76.45 54.91,50.96 82.36,118.86 82.36,203.69 0,84.83 -27.29,153.22 -81.87,205.17 -54.58,51.95 -122.64,77.93 -204.18,77.93 -81.54,0 -150.09,-25.98 -205.66,-77.93z"/>
  </g>
 </g>
</svg>
